<?xml version="1.0" encoding="utf-8"?>
<!-- Generator: Adobe Illustrator 19.2.1, SVG Export Plug-In . SVG Version: 6.00 Build 0)  -->
<svg version="1.1" xmlns="http://www.w3.org/2000/svg" xmlns:xlink="http://www.w3.org/1999/xlink" x="0px" y="0px"
	 viewBox="0 0 512 512" style="enable-background:new 0 0 512 512;" xml:space="preserve">
<style type="text/css">
	.st0{clip-path:url(#SVGID_2_);fill:#0071C5;}
	.st1{clip-path:url(#SVGID_4_);}
	.st2{clip-path:url(#SVGID_6_);}
	.st3{fill:#FFF200;}
	.st4{fill:#8DC8E8;}
	.st5{fill:#00AEEF;}
	.st6{fill:#0071C5;}
	.st7{fill:#FDB813;}
	.st8{fill:#FFDA00;}
	.st9{fill:#A6CE39;}
	.st10{fill:#ED1C24;}
	.st11{fill:#F7941E;}
	.st12{fill:#FFFFFF;}
	.st13{fill-rule:evenodd;clip-rule:evenodd;fill:#0071C5;}
</style>
<g id="Background">
	<g>
		<defs>
			<path id="SVGID_1_" d="M0,474.1C0,495,17,512,37.9,512h436.2c20.9,0,37.9-17,37.9-37.9V37.9C512,17,495,0,474.1,0H37.9
				C17,0,0,17,0,37.9V474.1z"/>
		</defs>
		<clipPath id="SVGID_2_">
			<use xlink:href="#SVGID_1_"  style="overflow:visible;"/>
		</clipPath>
		<rect x="0.2" y="0.2" class="st0" width="512" height="512"/>
	</g>
</g>
<g id="Die_Strip">
	<g>
		<defs>
			<path id="SVGID_3_" d="M0,474.1C0,495,17,512,37.9,512h436.2c20.9,0,37.9-17,37.9-37.9V37.9C512,17,495,0,474.1,0H37.9
				C17,0,0,17,0,37.9V474.1z"/>
		</defs>
		<clipPath id="SVGID_4_">
			<use xlink:href="#SVGID_3_"  style="overflow:visible;"/>
		</clipPath>
		<g class="st1">
			<defs>
				<rect id="SVGID_5_" x="0.2" y="466.2" width="512" height="46.1"/>
			</defs>
			<clipPath id="SVGID_6_">
				<use xlink:href="#SVGID_5_"  style="overflow:visible;"/>
			</clipPath>
			<g class="st2">
				<rect x="236.9" y="466.2" class="st3" width="1.3" height="46.9"/>
				<polygon class="st3" points="-5.7,473.5 -4.5,473.5 -4.5,473.2 -5.7,473.2 -5.7,474.1 -5.7,474.1 				"/>
				<rect x="463" y="504" class="st3" width="0" height="6.4"/>
				<path class="st3" d="M210.8,477.5v-4h-8.4v39.5h23V501h-21.8v-1.5h21.8v-0.6h-2.8v-1.7h-3.3v1h-11.5v-1h5.6v-1.3h-2.7v-1h-5
					v-2.1h23.5v1.2h0.5v-2.3h-18.6V490h6.8v-1h11.7v-1.9l-2.7-1.3v-19.3h2.3v-0.4h-15.8v6.4h1.2v-6h1.1v13.5l-3.6-1.9v-12h-0.7v11.7
					L210.8,477.5z M224.9,466.5h1.4v19l-1.4-0.7V466.5z M222.8,466.5h1.4v17.9l-1.4-0.7V466.5z M220.6,466.5h1.5v16.8l-1.5-0.7
					V466.5z M218.5,466.5h1.4v15.7l-1.4-0.7V466.5z M216.4,466.5h1.5v14.6l-1.5-0.7V466.5z"/>
				<rect x="-5.7" y="474.4" class="st3" width="0" height="0.3"/>
				<rect x="-5.7" y="467.7" class="st3" width="1.2" height="1.4"/>
				<rect x="-5.7" y="475" class="st3" width="0" height="5.7"/>
				<rect x="463" y="466.2" class="st3" width="0" height="1.6"/>
				<polygon class="st3" points="469,510.4 469,510.4 504.5,510.4 504.5,505.3 501.3,505.3 501.3,510.4 497.3,510.4 484.3,510.4 
					480.2,510.4 480.2,507.6 469.9,507.6 469.9,466.2 466.8,466.2 466.8,510.4 				"/>
				<polygon class="st3" points="-5.7,489.2 -5.7,489.2 -5.7,481.4 -5.7,481.4 -5.7,512.4 -5.7,512.4 				"/>
				<rect x="231" y="466.2" class="st3" width="2" height="46.9"/>
				<polygon class="st3" points="434.2,494.1 434.2,466.3 458.4,466.3 458.4,466.2 434.2,466.2 434.2,494.1 				"/>
				<rect x="262.2" y="466.2" class="st3" width="2.7" height="46.9"/>
				<rect x="267.5" y="466.2" class="st3" width="2.7" height="46.9"/>
				<path class="st3" d="M303.7,513.1v-11v-35.9H278v46.9H303.7z M281.1,498.3v2.9h5.4v1.9h-7.8v-4.8H281.1z"/>
				<rect x="256.8" y="466.2" class="st3" width="2.8" height="46.9"/>
				<rect x="272.7" y="466.2" class="st3" width="2.7" height="46.9"/>
				<rect x="234.2" y="466.2" class="st3" width="1.3" height="46.9"/>
				<rect x="242.2" y="466.2" class="st3" width="1.3" height="46.9"/>
				<rect x="239.5" y="466.2" class="st3" width="1.4" height="46.9"/>
				<path class="st3" d="M249,513.1v-46.9h-4.2v46.9H249z M247.9,491.7h-2.4v-2.6h2.4V491.7z M248,468.9v5.4H245v-5.4H248z"/>
				<rect x="251.5" y="466.2" class="st3" width="2.8" height="46.9"/>
				<polygon class="st3" points="502.6,468.2 502.6,501.4 505.5,501.4 505.5,511.5 510,511.5 510,468.2 				"/>
				<rect x="67.7" y="466.2" class="st3" width="3.3" height="7.3"/>
				<rect x="61" y="466.2" class="st3" width="3.4" height="7.3"/>
				<rect x="80.8" y="466.2" class="st3" width="3.4" height="7.3"/>
				<rect x="39.3" y="466.2" class="st3" width="12" height="7.3"/>
				<polygon class="st3" points="149,488.5 149,466.2 147.6,466.2 147.6,486 145.6,486 145.6,466.2 143.9,466.2 143.9,488.5 				"/>
				<rect x="54.5" y="466.2" class="st3" width="3.4" height="7.3"/>
				<polygon class="st3" points="94,484.6 94,486 141.2,486 141.2,474.6 116.8,474.6 116.8,480.6 114.8,480.6 114.8,474.6 
					113.3,474.6 113.3,485.5 111.3,485.5 111.3,474.6 105.9,474.6 105.9,473.2 111.3,473.2 111.3,471.9 109.8,471.9 109.8,466.2 
					107.4,466.2 107.4,472.1 105.7,472.1 105.7,466.2 104.1,466.2 104.1,472.1 102.4,472.1 102.4,466.2 100.8,466.2 100.8,467.2 
					99.2,467.2 99.2,466.2 97.5,466.2 97.5,467.2 95.9,467.2 95.9,466.2 94.3,466.2 94.3,484.6 				"/>
				<rect x="74.2" y="466.2" class="st3" width="3.4" height="7.3"/>
				<rect x="87.4" y="466.2" class="st3" width="5.2" height="7.3"/>
				<rect x="116.8" y="466.2" class="st3" width="24.4" height="7"/>
				<rect x="-15.7" y="466.2" class="st3" width="0.9" height="46.9"/>
				<rect x="77.7" y="512" class="st3" width="8.2" height="1.1"/>
				<polygon class="st3" points="71.3,512 71.3,511.6 64.6,511.6 64.6,513.1 72.7,513.1 72.7,512 				"/>
				<polygon class="st3" points="94,489.2 94,512 90.8,512 90.8,513.1 99,513.1 99,497.5 104,497.5 104,513.1 112.2,513.1 
					112.2,497.5 117.2,497.5 117.2,513.1 125.4,513.1 125.4,497.5 130.3,497.5 130.3,513.1 135.3,513.1 135.3,489.2 				"/>
				<rect x="51.3" y="511.6" class="st3" width="8.2" height="1.4"/>
				<polygon class="st3" points="458.4,505.9 452.4,505.9 449.2,505.9 438,505.9 438,505.9 434.9,505.9 434.2,505.9 434.2,496 
					434.2,496 434.2,513.1 446.2,513.1 446.2,507.4 449.4,507.4 449.4,513.1 452.8,513.1 452.8,507.4 456,507.4 456,513.1 
					458.4,513.1 458.4,510.4 				"/>
				<rect x="39.2" y="511.6" class="st3" width="7.3" height="1.4"/>
				<polygon class="st4" points="510,511.5 510,513.1 517.4,513.1 517.4,484.9 512.4,479.8 512.4,466.2 510,466.2 510,468.2 				"/>
				<polygon class="st4" points="542.2,513.1 542.2,509.8 539.7,507.2 539.7,466.2 537.5,466.2 537.5,513.1 				"/>
				<polygon class="st4" points="524.1,476.9 524.1,513.1 527.4,513.1 527.4,480.3 				"/>
				<polygon class="st5" points="143.9,488.5 143.9,489.2 135.3,489.2 135.3,513.1 149,513.1 149,488.5 				"/>
				<rect x="193" y="466.2" class="st4" width="7.6" height="26.1"/>
				<rect x="162" y="503.1" class="st4" width="2.8" height="10"/>
				<polygon class="st4" points="164.8,477.7 166.2,477.7 171.9,477.7 171.9,468.9 174.6,468.9 174.6,503.1 166.2,503.1 
					166.2,513.1 191,513.1 191,466.2 162,466.2 162,477.7 				"/>
				<rect x="151.4" y="466.2" class="st4" width="3.8" height="29.3"/>
				<rect x="404.8" y="466.2" class="st3" width="2.1" height="46.9"/>
				<rect x="390.3" y="466.2" class="st3" width="5.3" height="9"/>
				<polygon class="st3" points="397.9,475.1 397.9,513.1 403.1,513.1 403.1,466.2 397.3,466.2 397.3,475.1 				"/>
				<polygon class="st6" points="542.2,509.8 542.2,466.2 539.7,466.2 539.7,507.2 				"/>
				<rect x="534.1" y="466.2" class="st6" width="0.3" height="46.9"/>
				<polygon class="st6" points="530.6,513.1 531.1,513.1 531.1,466.2 530.6,466.2 530.6,483.4 				"/>
				<polygon class="st6" points="524.1,513.1 524.1,476.9 527.4,480.3 527.4,466.2 520.4,466.2 520.4,513.1 				"/>
				<polygon class="st6" points="517.4,484.9 517.4,466.2 512.4,466.2 512.4,479.8 				"/>
				<rect x="434.2" y="496" class="st3" width="0.6" height="9.9"/>
				<polygon class="st3" points="434.9,485.8 438,485.8 438,505.9 438,505.9 438,498 438,494.1 438,485.8 449.2,485.8 452.4,485.8 
					458.4,485.8 458.4,467.8 458.4,466.3 434.2,466.3 434.2,494.1 434.9,494.1 				"/>
				<polygon class="st5" points="458.4,485.8 458.4,485.8 452.4,485.8 452.4,485.8 				"/>
				<rect x="452.4" y="487.5" class="st5" width="6.1" height="6.6"/>
				<polygon class="st5" points="449.2,487.5 445.1,487.5 445.1,485.8 449.2,485.8 449.2,485.8 438,485.8 438,494.1 449.2,494.1 
									"/>
				<polygon class="st5" points="458.4,498 452.4,498 452.4,505.9 458.4,505.9 458.4,504 				"/>
				<rect x="438" y="498" class="st5" width="11.2" height="7.8"/>
				<polygon class="st7" points="20.1,511.7 20.1,512.4 19.9,512.4 19.9,513.1 36,513.1 36,511.7 				"/>
				<polygon class="st8" points="46.5,511.6 51.3,511.6 59.6,511.6 59.6,489.2 39.3,489.2 39.3,486 59.6,486 59.6,484.6 57.9,484.6 
					57.9,473.5 54.5,473.5 54.5,484.6 51.3,484.6 51.3,473.5 39.3,473.5 39.3,489.2 39.2,489.2 39.2,511.6 				"/>
				<polygon class="st8" points="71.3,486 71.3,484.6 71,484.6 71,473.5 67.7,473.5 67.7,484.6 64.4,484.6 64.4,473.5 61,473.5 
					61,484.6 59.6,484.6 59.6,486 				"/>
				<polygon class="st8" points="64.6,511.6 71.3,511.6 71.3,489.2 59.6,489.2 59.6,511.6 				"/>
				<polygon class="st5" points="71.3,512 72.7,512 72.7,511.7 77.7,511.7 77.7,512 85.9,512 85.9,511.7 90.8,511.7 90.8,512 
					94,512 94,489.2 71.3,489.2 71.3,511.6 				"/>
				<polygon class="st5" points="94,486 94,484.6 92.6,484.6 92.6,473.5 87.4,473.5 87.4,484.6 84.2,484.6 84.2,473.5 80.8,473.5 
					80.8,484.6 77.7,484.6 77.7,473.5 74.2,473.5 74.2,484.6 71.3,484.6 71.3,486 				"/>
				<rect x="373.2" y="466.2" class="st8" width="4.9" height="3.6"/>
				<polygon class="st8" points="358.1,511.2 358.1,498.9 355.1,498.9 355.1,491.3 358.1,491.3 358.1,478.4 345.1,478.4 
					345.1,513.1 355.1,513.1 355.1,511.2 				"/>
				<rect x="345.1" y="466.2" class="st8" width="13" height="3.6"/>
				<rect x="343.4" y="466.2" class="st8" width="0.2" height="46.9"/>
				<rect x="359" y="466.2" class="st8" width="4.5" height="46.9"/>
				<rect x="339.7" y="466.2" class="st8" width="1.5" height="46.9"/>
				<path class="st8" d="M321.9,469.8v8.6h-10.7v12.8h10.7v7.7h-10.7v12.3h10.7v1.8h1.1v-1.9h1v1.9h1.1v-34.6H323v-8.6h2.1v-3.6
					h-13.9v3.6H321.9z M323,491.3h1v7.7h-1V491.3z"/>
				<polygon class="st8" points="308.2,511.2 308.2,498.9 306.4,498.9 306.4,502.1 303.7,502.1 303.7,513.1 306.4,513.1 
					306.4,511.2 				"/>
				<rect x="379.7" y="466.2" class="st8" width="4.6" height="3.6"/>
				<rect x="330.9" y="466.2" class="st8" width="1.4" height="46.9"/>
				<rect x="306.4" y="478.4" class="st8" width="1.7" height="12.8"/>
				<rect x="328.9" y="466.2" class="st8" width="1.3" height="46.9"/>
				<rect x="306.4" y="466.2" class="st8" width="1.7" height="3.6"/>
				<rect x="335.3" y="466.2" class="st8" width="1.5" height="46.9"/>
				<rect x="379.7" y="478.4" class="st8" width="4.6" height="12.8"/>
				<rect x="373.2" y="498.9" class="st8" width="4.9" height="12.3"/>
				<rect x="373.2" y="478.4" class="st8" width="4.9" height="12.8"/>
				<polygon class="st8" points="397.9,513.1 397.9,475.1 397.3,475.1 397.3,475.1 395.7,475.1 395.7,475.1 390.3,475.1 
					390.3,466.2 390,466.2 390,513.1 				"/>
				<rect x="379.7" y="498.9" class="st8" width="4.6" height="12.3"/>
				<rect x="385.6" y="498.9" class="st8" width="3" height="12.3"/>
				<rect x="385.6" y="466.2" class="st8" width="3" height="3.6"/>
				<rect x="385.6" y="478.4" class="st8" width="3" height="12.8"/>
				<rect x="497.3" y="505.3" class="st8" width="4" height="5.1"/>
				<rect x="480.2" y="507.6" class="st8" width="4.1" height="2.9"/>
				<rect x="452.4" y="485.8" class="st6" width="6.1" height="1.8"/>
				<rect x="445.1" y="485.8" class="st6" width="4.1" height="1.8"/>
				<rect x="438" y="494.1" class="st6" width="11.2" height="3.9"/>
				<rect x="452.4" y="494.1" class="st6" width="6.1" height="3.9"/>
				<polygon class="st9" points="39.2,489.2 36.1,489.2 36.1,511.7 36,511.7 36,513.1 39.2,513.1 39.2,511.6 				"/>
				<rect x="-5.7" y="481.4" class="st10" width="1.2" height="7.8"/>
				<rect x="-5.7" y="475" class="st10" width="1.2" height="5.7"/>
				<rect x="-5.7" y="473.5" class="st10" width="1.2" height="0.6"/>
				<rect x="-5.7" y="474.4" class="st10" width="1.2" height="0.3"/>
				<polygon class="st7" points="-4.5,489.2 -5.7,489.2 -5.7,489.2 -5.7,512.4 11.8,512.4 11.8,466.2 6.4,466.2 6.4,489.2 				"/>
				<polygon class="st7" points="19.9,512.4 19.9,512.4 20.1,512.4 20.1,511.7 20.1,466.2 14.2,466.2 14.2,512.4 				"/>
				<polygon class="st6" points="141.2,474.6 141.2,486 94,486 71.3,486 59.6,486 39.3,486 39.3,489.2 59.6,489.2 71.3,489.2 
					94,489.2 135.3,489.2 143.9,489.2 143.9,488.5 143.9,466.2 141.2,466.2 141.2,473.1 				"/>
				<polygon class="st5" points="149,513.1 155.2,513.1 155.2,495.4 151.4,495.4 151.4,466.2 149,466.2 149,488.5 				"/>
				<polygon class="st5" points="174.6,503.1 174.6,468.9 171.9,468.9 171.9,477.7 166.2,477.7 166.2,503.1 				"/>
				<rect x="162" y="477.7" class="st5" width="2.8" height="25.4"/>
				<polygon class="st5" points="160,513.1 160,503.1 160,477.7 160,466.2 157.1,466.2 157.1,513.1 				"/>
				<rect x="193" y="492.3" class="st5" width="7.6" height="20.8"/>
				<rect x="536.8" y="466.2" class="st11" width="0.7" height="46.9"/>
				<rect x="534.4" y="466.2" class="st11" width="0.8" height="46.9"/>
				<polygon class="st11" points="529.7,513.1 530.6,513.1 530.6,483.4 530.6,466.2 529.7,466.2 				"/>
				<polygon class="st11" points="527.4,513.1 528.2,513.1 528.2,466.2 527.4,466.2 527.4,480.3 				"/>
				<polygon class="st6" points="469,510.4 469,510.4 466.8,510.4 463,510.4 463,510.4 458.4,510.4 458.4,513.1 468.3,513.1 
					468.3,510.4 				"/>
				<polygon class="st7" points="458.4,504 458.4,505.9 458.4,510.4 463,510.4 463,504 				"/>
				<polygon class="st7" points="458.4,467.8 463,467.8 463,466.2 458.4,466.2 458.4,466.3 				"/>
				<polygon class="st8" points="465.5,467.8 465.5,504 463,504 463,510.4 466.8,510.4 466.8,466.2 463,466.2 463,467.8 				"/>
				<polygon class="st7" points="493.2,505.3 493.2,503.3 491,503.3 491,507.6 484.3,507.6 484.3,510.4 497.3,510.4 497.3,505.3 
									"/>
				<polygon class="st9" points="434.2,513.1 434.2,496 434.2,494.1 434.2,466.2 431,466.2 431,513.1 				"/>
				<rect x="415" y="466.2" class="st5" width="16" height="46.9"/>
				<rect x="409.1" y="466.2" class="st4" width="5.9" height="46.9"/>
				<polygon class="st9" points="39.2,489.2 39.3,489.2 39.3,473.5 39.3,466.2 36.1,466.2 36.1,489.2 				"/>
				<polygon class="st5" points="36,511.7 36.1,511.7 36.1,489.2 36.1,466.2 20.1,466.2 20.1,511.7 				"/>
				<polygon class="st4" points="-4.5,469.1 -4.5,473.2 -4.5,473.5 -4.5,474.1 -4.5,474.4 -4.5,474.7 -4.5,475 -4.5,480.7 
					-4.5,481.4 -4.5,489.2 6.4,489.2 6.4,466.2 -4.5,466.2 -4.5,467.7 				"/>
				<polygon class="st4" points="-5.7,513.1 -5.7,512.4 -5.7,481.4 -5.7,481.4 -5.7,480.7 -5.7,480.7 -5.7,475 -5.7,475 -5.7,474.7 
					-5.7,474.7 -5.7,474.4 -5.7,474.4 -5.7,474.1 -5.7,474.1 -5.7,473.2 -5.7,473.2 -5.7,469.1 -5.7,469.1 -5.7,467.7 -5.7,467.7 
					-5.7,466.2 -14.9,466.2 -14.9,513.1 				"/>
				<polygon class="st9" points="-5.7,512.4 -5.7,512.4 -5.7,513.1 19.9,513.1 19.9,512.4 19.9,512.4 14.2,512.4 14.2,466.2 
					11.8,466.2 11.8,512.4 				"/>
				<polygon class="st7" points="-4.5,475 -4.5,474.7 -5.7,474.7 -5.7,474.7 -5.7,474.7 -5.7,475 -5.7,475 -5.7,475 				"/>
				<polygon class="st7" points="-4.5,474.4 -4.5,474.1 -5.7,474.1 -5.7,474.1 -5.7,474.1 -5.7,474.4 -5.7,474.4 -5.7,474.4 				"/>
				<polygon class="st7" points="-4.5,481.4 -4.5,480.7 -5.7,480.7 -5.7,480.7 -5.7,480.7 -5.7,481.4 -5.7,481.4 -5.7,481.4 				"/>
				<polygon class="st10" points="-5.7,467.7 -4.5,467.7 -4.5,466.2 -5.7,466.2 -5.7,467.7 				"/>
				<polygon class="st6" points="-4.5,469.1 -5.7,469.1 -5.7,469.1 -5.7,473.2 -5.7,473.2 -4.5,473.2 				"/>
				<rect x="99" y="497.5" class="st11" width="5" height="15.5"/>
				<polygon class="st11" points="90.8,511.7 85.9,511.7 85.9,512 85.9,513.1 90.8,513.1 90.8,512 				"/>
				<rect x="125.4" y="497.5" class="st11" width="4.8" height="15.5"/>
				<rect x="46.5" y="511.6" class="st11" width="4.9" height="1.4"/>
				<rect x="59.6" y="511.6" class="st11" width="5" height="1.4"/>
				<polygon class="st11" points="77.7,511.7 72.7,511.7 72.7,512 72.7,513.1 77.7,513.1 77.7,512 				"/>
				<rect x="112.2" y="497.5" class="st9" width="5" height="15.5"/>
				<polygon class="st10" points="111.3,471.9 111.3,473.2 105.9,473.2 105.9,474.6 111.3,474.6 111.3,485.5 113.3,485.5 
					113.3,474.6 114.8,474.6 114.8,480.6 116.8,480.6 116.8,474.6 141.2,474.6 141.2,473.1 116.8,473.1 116.8,466.2 109.8,466.2 
					109.8,471.9 				"/>
				<rect x="145.6" y="466.2" class="st10" width="2" height="19.8"/>
				<rect x="102.4" y="466.2" class="st10" width="1.6" height="5.9"/>
				<rect x="99.2" y="466.2" class="st10" width="1.6" height="1"/>
				<rect x="95.9" y="466.2" class="st10" width="1.6" height="1"/>
				<polygon class="st10" points="92.6,484.6 94,484.6 94.3,484.6 94.3,466.2 92.6,466.2 92.6,473.5 				"/>
				<rect x="105.7" y="466.2" class="st10" width="1.6" height="5.9"/>
				<polygon class="st5" points="57.9,484.6 59.6,484.6 61,484.6 61,473.5 61,466.2 57.9,466.2 57.9,473.5 				"/>
				<polygon class="st5" points="84.2,484.6 87.4,484.6 87.4,473.5 87.4,466.2 84.2,466.2 84.2,473.5 				"/>
				<polygon class="st5" points="77.7,484.6 80.8,484.6 80.8,473.5 80.8,466.2 77.7,466.2 77.7,473.5 				"/>
				<polygon class="st5" points="51.3,484.6 54.5,484.6 54.5,473.5 54.5,466.2 51.3,466.2 51.3,473.5 				"/>
				<polygon class="st5" points="64.4,484.6 67.7,484.6 67.7,473.5 67.7,466.2 64.4,466.2 64.4,473.5 				"/>
				<polygon class="st5" points="71,484.6 71.3,484.6 74.2,484.6 74.2,473.5 74.2,466.2 71,466.2 71,473.5 				"/>
				<polygon class="st10" points="160,503.1 160,513.1 162,513.1 162,503.1 162,477.7 162,466.2 160,466.2 160,477.7 				"/>
				<polygon class="st10" points="193,513.1 193,492.3 193,466.2 191,466.2 191,513.1 				"/>
				<polygon class="st10" points="155.2,513.1 157.1,513.1 157.1,466.2 155.2,466.2 155.2,495.4 				"/>
				<polygon class="st6" points="306.4,502.1 306.4,498.9 306.4,491.3 306.4,478.4 306.4,469.8 306.4,466.2 303.7,466.2 
					303.7,502.1 				"/>
				<polygon class="st10" points="220,466.5 218.5,466.5 218.5,481.5 220,482.2 				"/>
				<polygon class="st10" points="226.4,466.5 224.9,466.5 224.9,484.7 226.4,485.5 				"/>
				<polygon class="st10" points="222.1,466.5 220.6,466.5 220.6,482.6 222.1,483.3 				"/>
				<polygon class="st10" points="217.9,466.5 216.4,466.5 216.4,480.4 217.9,481.1 				"/>
				<polygon class="st10" points="227,466.5 227,485.8 229.6,487.1 229.6,489.1 217.9,489.1 217.9,490 211.1,490 211.1,491.7 
					229.7,491.7 229.7,494 229.2,494 229.2,492.8 205.7,492.8 205.7,494.9 210.7,494.9 210.7,495.9 213.4,495.9 213.4,497.1 
					207.8,497.1 207.8,498.2 219.3,498.2 219.3,497.2 222.6,497.2 222.6,498.9 225.4,498.9 225.4,499.5 203.6,499.5 203.6,501 
					225.4,501 225.4,513.1 231,513.1 231,466.2 229.2,466.2 229.2,466.5 				"/>
				<polygon class="st10" points="224.2,466.5 222.8,466.5 222.8,483.7 224.2,484.4 				"/>
				<polygon class="st10" points="200.6,513.1 202.4,513.1 202.4,473.6 210.8,473.6 210.8,477.5 211.4,477.9 211.4,466.2 
					200.6,466.2 200.6,492.3 				"/>
				<polygon class="st10" points="215.7,480.1 215.7,466.5 214.6,466.5 214.6,472.5 213.4,472.5 213.4,466.2 212.1,466.2 
					212.1,478.2 				"/>
				<rect x="235.6" y="466.2" class="st10" width="1.3" height="46.9"/>
				<rect x="238.2" y="466.2" class="st10" width="1.3" height="46.9"/>
				<rect x="240.9" y="466.2" class="st10" width="1.3" height="46.9"/>
				<rect x="243.5" y="466.2" class="st10" width="1.4" height="46.9"/>
				<rect x="232.9" y="466.2" class="st10" width="1.3" height="46.9"/>
				<rect x="245" y="468.9" class="st10" width="3.1" height="5.4"/>
				<rect x="245.5" y="489.1" class="st10" width="2.4" height="2.6"/>
				<polygon class="st10" points="286.5,503.1 286.5,501.2 281.1,501.2 281.1,498.3 278.6,498.3 278.6,503.1 				"/>
				<rect x="270.2" y="466.2" class="st6" width="2.6" height="46.9"/>
				<rect x="259.6" y="466.2" class="st6" width="2.6" height="46.9"/>
				<rect x="264.8" y="466.2" class="st6" width="2.6" height="46.9"/>
				<rect x="254.3" y="466.2" class="st6" width="2.5" height="46.9"/>
				<rect x="275.4" y="466.2" class="st6" width="2.6" height="46.9"/>
				<rect x="249" y="466.2" class="st6" width="2.6" height="46.9"/>
				<polygon class="st11" points="378.1,513.1 378.1,511.2 373.2,511.2 373.2,498.9 378.1,498.9 378.1,491.3 373.2,491.3 
					373.2,478.4 378.1,478.4 378.1,469.8 373.2,469.8 373.2,466.2 369.4,466.2 369.4,513.1 				"/>
				<polygon class="st11" points="379.7,469.8 379.7,478.4 384.3,478.4 384.3,491.3 379.7,491.3 379.7,498.9 384.3,498.9 
					384.3,511.2 379.7,511.2 379.7,513.1 388.7,513.1 388.7,511.2 385.6,511.2 385.6,498.9 388.7,498.9 388.7,491.3 385.6,491.3 
					385.6,478.4 388.7,478.4 388.7,469.8 385.6,469.8 385.6,466.2 384.3,466.2 384.3,469.8 				"/>
				<polygon class="st11" points="345.1,513.1 345.1,478.4 358.1,478.4 358.1,491.3 355.1,491.3 355.1,498.9 358.1,498.9 
					358.1,511.2 355.1,511.2 355.1,513.1 359,513.1 359,466.2 358.1,466.2 358.1,469.8 345.1,469.8 345.1,466.2 343.6,466.2 
					343.6,513.1 				"/>
				<rect x="363.5" y="466.2" class="st11" width="1.7" height="46.9"/>
				<polygon class="st10" points="388.7,478.4 388.7,491.3 388.7,498.9 388.7,511.2 388.7,513.1 390,513.1 390,466.2 388.7,466.2 
					388.7,469.8 				"/>
				<rect x="336.8" y="466.2" class="st7" width="2.9" height="46.9"/>
				<polygon class="st7" points="323,469.8 323,478.4 325.1,478.4 325.1,513.1 328.9,513.1 328.9,466.2 325.1,466.2 325.1,469.8 
									"/>
				<rect x="330.3" y="466.2" class="st7" width="0.6" height="46.9"/>
				<rect x="323" y="491.3" class="st7" width="1" height="7.7"/>
				<rect x="323" y="511.2" class="st7" width="1" height="1.9"/>
				<rect x="332.3" y="466.2" class="st7" width="3" height="46.9"/>
				<rect x="341.1" y="466.2" class="st7" width="2.3" height="46.9"/>
				<polygon class="st11" points="306.4,469.8 306.4,478.4 308.2,478.4 308.2,491.3 306.4,491.3 306.4,498.9 308.2,498.9 
					308.2,511.2 306.4,511.2 306.4,513.1 321.9,513.1 321.9,511.2 311.2,511.2 311.2,498.9 321.9,498.9 321.9,491.3 311.2,491.3 
					311.2,478.4 321.9,478.4 321.9,469.8 311.2,469.8 311.2,466.2 308.2,466.2 308.2,469.8 				"/>
				<rect x="403.1" y="466.2" class="st11" width="1.7" height="46.9"/>
				<polygon class="st3" points="395.7,475.1 397.3,475.1 397.3,475.1 397.3,466.2 395.7,466.2 395.7,475.1 				"/>
				<polygon class="st8" points="378.1,478.4 378.1,491.3 378.1,498.9 378.1,511.2 378.1,513.1 379.7,513.1 379.7,511.2 
					379.7,498.9 379.7,491.3 379.7,478.4 379.7,469.8 379.7,466.2 378.1,466.2 378.1,469.8 				"/>
				<rect x="365.3" y="466.2" class="st8" width="4.1" height="46.9"/>
				<polygon class="st3" points="517.4,513.1 520.4,513.1 520.4,466.2 517.4,466.2 517.4,484.9 				"/>
				<rect x="531.1" y="466.2" class="st3" width="3" height="46.9"/>
				<rect x="528.2" y="466.2" class="st3" width="1.5" height="46.9"/>
				<polygon class="st10" points="166.2,477.7 164.8,477.7 164.8,503.1 164.8,513.1 166.2,513.1 166.2,503.1 				"/>
				<rect x="406.9" y="466.2" class="st9" width="2.2" height="46.9"/>
				<rect x="535.2" y="466.2" class="st3" width="1.6" height="46.9"/>
				<polygon class="st6" points="458.4,485.8 458.4,487.5 458.4,494.1 458.4,498 458.4,504 463,504 463,504 465.5,504 465.5,467.8 
					463,467.8 463,467.8 458.4,467.8 458.4,485.8 				"/>
				<polygon class="st5" points="480.2,507.6 484.3,507.6 491,507.6 491,503.3 493.2,503.3 493.2,505.3 497.3,505.3 501.3,505.3 
					504.5,505.3 504.5,510.4 469,510.4 468.3,510.4 468.3,513.1 510,513.1 510,511.5 505.5,511.5 505.5,501.4 502.6,501.4 
					502.6,468.2 502.6,466.2 469.9,466.2 469.9,507.6 				"/>
				<rect x="502.6" y="466.2" class="st5" width="7.4" height="2.1"/>
				<polygon class="st7" points="452.4,494.1 452.4,487.5 452.4,485.8 452.4,485.8 449.2,485.8 449.2,485.8 449.2,487.5 
					449.2,494.1 449.2,498 449.2,505.9 452.4,505.9 452.4,498 				"/>
				<polygon class="st7" points="434.9,485.8 434.9,494.1 434.9,496 434.9,505.9 438,505.9 438,485.8 				"/>
				<rect x="446.2" y="507.4" class="st5" width="3.2" height="5.7"/>
				<rect x="452.8" y="507.4" class="st5" width="3.2" height="5.7"/>
				<polygon class="st10" points="434.9,496 434.9,494.1 434.2,494.1 434.2,494.1 434.2,496 434.2,496 				"/>
			</g>
		</g>
	</g>
</g>
<g id="Intel_Logo">
	<g>
		<path class="st12" d="M369.6,430.4c-46.4,4.3-94.8-2.5-101.6-38.8c-3.3-17.9,4.8-36.9,15.7-48.7v-6.3
			c-19.5,17.1-30,38.7-23.9,64.2c7.8,32.7,49.3,51.3,112.7,45.1c25.1-2.4,57.9-10.5,80.8-23v-17.8
			C432.4,417.5,398.1,427.7,369.6,430.4z M491.9,336.2c-11-53.8-115.4-57.2-182.7-16.2v4.5c67.2-34.6,162.6-34.4,171.3,15.2
			c2.9,16.4-6.3,33.5-22.8,43.3v12.9C477.5,388.6,497.8,365.1,491.9,336.2z"/>
		<path class="st12" d="M449.3,328.4h-12.2v54.2c0,6.4,3.1,11.9,12.2,12.8V328.4z"/>
		<path class="st12" d="M304.4,348.2h-12.2l0,35.4c0,6.4,3.1,11.9,12.2,12.8V348.2z"/>
		<rect x="292.2" y="330" class="st12" width="12.2" height="11.5"/>
		<path class="st12" d="M377.3,395.8c-9.9,0-14-6.8-14-13.6v-47h12.1v13h9.1v9.7h-9.1v23.5c0,2.8,1.3,4.3,4.2,4.3h4.9v10.1H377.3"/>
		<path class="st12" d="M399.5,375.8c0,6.2,3.9,10.7,10.7,10.7c5.4,0,8-1.5,11.1-4.5l7.5,7.1c-4.8,4.7-9.8,7.6-18.6,7.6
			c-11.6,0-22.6-6.3-22.6-24.7c0-15.7,9.7-24.6,22.3-24.6c12.9,0,20.3,10.4,20.3,24v4.4H399.5 M409.3,357.4c-4.1,0-7.3,2.1-8.7,5
			c-0.8,1.7-1.1,3.1-1.2,5.2h18.6C417.9,362.4,415.5,357.4,409.3,357.4z"/>
		<path class="st12" d="M337.2,357.9c3.5,0,5,1.8,5,4.6v33.4h12.1v-33.4c0-6.8-3.6-14.3-14.2-14.3l-24.9,0v47.7h12.1v-38H337.2z"/>
		<g>
			<path class="st12" d="M462.4,338.1c-2.7,0-4.8-2.2-4.8-4.8c0-2.7,2.1-4.8,4.8-4.8c2.7,0,4.9,2.2,4.9,4.8
				C467.3,335.9,465.1,338.1,462.4,338.1z M462.4,329.2c-2.2,0-4,1.8-4,4c0,2.2,1.8,4,4,4c2.2,0,4-1.8,4-4
				C466.5,331,464.7,329.2,462.4,329.2z M464.6,336.1h-0.9c-0.1,0-0.2,0-0.2-0.1l-1.2-2.1c0,0-0.1-0.1-0.2-0.1c0,0-0.2,0-0.4,0
				c-0.1,0-0.2,0-0.2,0v2.1c0,0.1-0.1,0.2-0.2,0.2h-0.8c-0.1,0-0.2-0.1-0.2-0.2v-5.2c0-0.3,0.1-0.4,0.4-0.5c0.3,0,1.1-0.1,1.5-0.1
				c1.5,0,2.4,0.4,2.4,1.8v0.1c0,0.9-0.4,1.3-1.1,1.5l1.3,2.2c0,0,0,0.1,0,0.2C464.8,336.1,464.8,336.1,464.6,336.1z M463.4,332
				c0-0.6-0.4-0.8-1.1-0.8c-0.1,0-0.4,0-0.6,0c-0.1,0-0.2,0-0.2,0v1.7c0.1,0,0.7,0,0.8,0c0.8,0,1.1-0.3,1.1-0.8V332z"/>
		</g>
	</g>
</g>
<g id="graphic">
	<polygon class="st12" points="306.5,200.4 369,196.2 370,242.5 324.1,239.7 	"/>
	<polygon class="st12" points="372.3,257.3 160,258.3 63.5,119.1 275.8,119.1 	"/>
	<rect x="160" y="166.8" class="st6" width="209.4" height="37.2"/>
	<rect x="160" y="239.7" class="st6" width="209.4" height="9.3"/>
	<rect x="160" y="196.2" class="st6" width="7.5" height="48.2"/>
	<polygon class="st6" points="375.4,244.4 362.5,244.4 366.8,196.2 375.4,196.2 	"/>
	<polygon class="st12" points="372.3,192.6 160,192.6 63.5,45.6 265.1,45.6 	"/>
	<path class="st12" d="M63.5,45.6c0,0-20.8,25.6,0,73.5L160,258.3c0,0-31.7-40.6,0-65.7L63.5,45.6z"/>
	<path class="st6" d="M160,192.6c0,0-29.2,18.5,0,56.4"/>
	<path class="st13" d="M78.5,79.4c0,0-21.4,21.9,0,64.4l14.1,19c0,0-14.9-25,0-62L78.5,79.4z"/>
	<path class="st13" d="M120.9,140.9c0,0-21.4,21.9,0,64.4l14.1,19c0,0-14.9-25,0-62L120.9,140.9z"/>
</g>
</svg>
